<?xml version="1.0" encoding="UTF-8" ?>
<!DOCTYPE svg PUBLIC "-//W3C//DTD SVG 1.1//EN" "http://www.w3.org/Graphics/SVG/1.1/DTD/svg11.dtd">
<svg width="353pt" height="153pt" viewBox="0 0 353 153" version="1.1" xmlns="http://www.w3.org/2000/svg">
<g id="#3d2325ff">
<path fill="#3d2325" opacity="1.00" d=" M 0.00 0.00 L 352.49 0.00 C 347.02 0.87 341.49 0.65 335.99 0.62 C 224.33 0.67 112.66 0.50 1.01 0.70 C 1.00 51.47 0.99 102.23 1.01 153.00 L 0.00 153.00 L 0.00 0.00 Z" />
</g>
<g id="#290008ff">
<path fill="#290008" opacity="1.00" d=" M 352.49 0.00 L 353.00 0.00 L 353.00 153.00 L 1.01 153.00 C 0.99 102.23 1.00 51.47 1.01 0.70 C 112.66 0.50 224.33 0.67 335.99 0.62 C 341.49 0.65 347.02 0.87 352.49 0.00 M 22.37 44.31 C 23.12 44.27 24.63 44.18 25.39 44.14 C 25.37 46.36 25.35 48.59 25.32 50.81 C 26.44 50.82 27.56 50.82 28.68 50.80 C 28.64 48.60 28.62 46.39 28.60 44.19 C 29.38 44.19 30.95 44.19 31.73 44.19 C 31.74 43.05 31.74 41.92 31.74 40.78 C 28.60 40.77 25.46 40.79 22.32 40.67 C 21.76 41.85 21.87 43.13 22.37 44.31 M 32.27 50.90 C 33.09 50.89 34.71 50.86 35.53 50.85 C 36.08 48.75 36.58 46.62 37.31 44.57 C 38.01 46.61 38.55 48.70 39.00 50.81 C 40.19 50.80 41.39 50.78 42.58 50.74 C 41.33 47.48 40.35 44.12 39.31 40.78 C 38.35 40.76 36.43 40.73 35.47 40.72 C 34.24 44.06 33.27 47.49 32.27 50.90 M 42.50 40.77 C 42.50 41.62 42.51 43.33 42.51 44.19 C 43.31 44.18 44.92 44.17 45.72 44.16 C 45.70 46.40 45.69 48.64 45.69 50.89 C 46.56 50.85 48.30 50.77 49.16 50.73 C 49.02 48.58 48.90 46.43 48.81 44.29 C 49.70 44.25 51.49 44.17 52.38 44.13 C 52.38 43.29 52.38 41.61 52.38 40.77 C 49.08 40.77 45.79 40.77 42.50 40.77 M 52.52 50.75 C 53.72 50.76 54.93 50.76 56.14 50.75 C 56.55 48.69 57.06 46.65 57.71 44.64 C 58.54 46.67 58.99 48.82 59.51 50.94 C 60.65 50.84 61.78 50.72 62.92 50.59 C 61.69 47.32 60.77 43.94 59.52 40.68 C 58.58 40.71 56.71 40.77 55.78 40.80 C 54.73 44.13 53.75 47.48 52.52 50.75 M 89.33 59.57 C 85.56 60.60 82.05 62.54 79.17 65.17 C 70.17 73.24 69.25 88.71 77.41 97.67 C 87.65 109.48 108.74 108.51 118.08 96.06 C 125.24 86.76 123.57 72.00 114.42 64.62 C 107.61 58.81 97.84 57.36 89.33 59.57 M 192.50 59.77 C 188.76 60.82 185.36 62.88 182.56 65.54 C 174.07 73.59 173.15 88.31 180.82 97.20 C 191.20 109.91 213.86 108.53 222.78 94.80 C 228.60 85.67 227.13 72.34 218.84 65.16 C 211.85 58.74 201.43 57.22 192.50 59.77 M 299.50 59.68 C 291.16 61.85 284.36 68.93 282.68 77.40 C 281.94 83.24 282.14 89.54 285.52 94.61 C 294.61 109.64 319.60 109.58 329.17 95.08 C 332.97 89.72 333.31 82.76 332.26 76.49 C 330.72 70.36 326.44 65.11 320.99 62.00 C 314.55 58.26 306.59 57.87 299.50 59.68 M 22.93 60.19 C 22.44 74.94 23.02 89.73 22.65 104.49 C 28.42 104.85 34.20 104.59 39.98 104.67 C 43.97 104.59 48.10 104.97 51.91 103.55 C 58.74 101.38 64.51 95.88 66.56 88.96 C 69.57 79.73 65.75 68.64 57.41 63.54 C 50.75 59.42 42.53 59.89 35.01 59.85 C 30.99 60.08 26.87 59.30 22.93 60.19 M 136.38 64.51 C 127.98 70.38 125.31 82.38 129.48 91.57 C 133.00 99.88 142.15 104.84 150.98 104.66 C 159.21 104.60 167.44 104.81 175.67 104.55 C 172.86 95.79 167.82 87.59 160.24 82.19 C 167.67 76.72 173.23 68.79 175.56 59.84 C 167.71 59.84 159.86 59.85 152.01 59.83 C 146.50 59.85 140.87 61.22 136.38 64.51 M 231.81 59.51 C 231.96 74.56 231.43 89.64 232.07 104.66 C 246.91 104.58 261.75 104.73 276.58 104.59 C 276.29 89.51 276.61 74.42 276.42 59.34 C 267.16 61.87 259.21 67.98 254.12 76.09 C 249.15 68.01 241.21 61.50 231.81 59.51 Z" />
</g>
<g id="#ffffffff">
<path fill="#ffffff" opacity="1.00" d=" M 22.37 44.31 C 21.87 43.13 21.76 41.85 22.32 40.67 C 25.46 40.79 28.60 40.77 31.74 40.78 C 31.74 41.92 31.74 43.05 31.73 44.19 C 30.95 44.19 29.38 44.19 28.60 44.19 C 28.62 46.39 28.64 48.60 28.68 50.80 C 27.56 50.82 26.44 50.82 25.32 50.81 C 25.35 48.59 25.37 46.36 25.39 44.14 C 24.63 44.18 23.12 44.27 22.37 44.31 Z" />
<path fill="#ffffff" opacity="1.00" d=" M 32.27 50.90 C 33.27 47.49 34.24 44.06 35.47 40.72 C 36.43 40.73 38.35 40.76 39.31 40.78 C 40.35 44.12 41.33 47.48 42.58 50.74 C 41.39 50.78 40.19 50.80 39.00 50.81 C 38.55 48.70 38.01 46.61 37.31 44.57 C 36.58 46.62 36.08 48.75 35.53 50.85 C 34.71 50.86 33.09 50.89 32.27 50.90 Z" />
<path fill="#ffffff" opacity="1.00" d=" M 42.50 40.77 C 45.79 40.77 49.08 40.77 52.38 40.77 C 52.38 41.61 52.38 43.29 52.38 44.13 C 51.49 44.17 49.70 44.25 48.81 44.29 C 48.90 46.43 49.02 48.58 49.16 50.73 C 48.30 50.77 46.56 50.85 45.69 50.89 C 45.69 48.64 45.70 46.40 45.72 44.16 C 44.92 44.17 43.31 44.18 42.51 44.19 C 42.51 43.33 42.50 41.62 42.50 40.77 Z" />
<path fill="#ffffff" opacity="1.00" d=" M 52.52 50.75 C 53.75 47.48 54.73 44.13 55.78 40.80 C 56.71 40.77 58.58 40.71 59.52 40.68 C 60.77 43.94 61.69 47.32 62.92 50.59 C 61.78 50.72 60.65 50.84 59.51 50.94 C 58.99 48.82 58.54 46.67 57.71 44.64 C 57.06 46.65 56.55 48.69 56.14 50.75 C 54.93 50.76 53.72 50.76 52.52 50.75 Z" />
</g>
<g id="#f06c21ff">
<path fill="#f06c21" opacity="1.00" d=" M 89.33 59.57 C 97.84 57.36 107.61 58.81 114.42 64.62 C 123.57 72.00 125.24 86.76 118.08 96.06 C 108.74 108.51 87.65 109.48 77.41 97.67 C 69.25 88.71 70.17 73.24 79.17 65.17 C 82.05 62.54 85.56 60.60 89.33 59.57 Z" />
<path fill="#f06c21" opacity="1.00" d=" M 22.93 60.19 C 26.87 59.30 30.99 60.08 35.01 59.85 C 42.53 59.89 50.75 59.42 57.41 63.54 C 65.75 68.64 69.57 79.73 66.56 88.96 C 64.51 95.88 58.74 101.38 51.91 103.55 C 48.10 104.97 43.97 104.59 39.98 104.67 C 34.20 104.59 28.42 104.85 22.65 104.49 C 23.02 89.73 22.44 74.94 22.93 60.19 Z" />
</g>
<g id="#f8a522ff">
<path fill="#f8a522" opacity="1.00" d=" M 192.50 59.77 C 201.43 57.22 211.85 58.74 218.84 65.16 C 227.13 72.34 228.60 85.67 222.78 94.80 C 213.86 108.53 191.20 109.91 180.82 97.20 C 173.15 88.31 174.07 73.59 182.56 65.54 C 185.36 62.88 188.76 60.82 192.50 59.77 Z" />
<path fill="#f8a522" opacity="1.00" d=" M 136.38 64.51 C 140.87 61.22 146.50 59.85 152.01 59.83 C 159.86 59.85 167.71 59.84 175.56 59.84 C 173.23 68.79 167.67 76.72 160.24 82.19 C 167.82 87.59 172.86 95.79 175.67 104.55 C 167.44 104.81 159.21 104.60 150.98 104.66 C 142.15 104.84 133.00 99.88 129.48 91.57 C 125.31 82.38 127.98 70.38 136.38 64.51 Z" />
</g>
<g id="#ef1931ff">
<path fill="#ef1931" opacity="1.00" d=" M 299.50 59.68 C 306.59 57.87 314.55 58.26 320.99 62.00 C 326.44 65.11 330.72 70.36 332.26 76.49 C 333.31 82.76 332.97 89.72 329.17 95.08 C 319.60 109.58 294.61 109.64 285.52 94.61 C 282.14 89.54 281.94 83.24 282.68 77.40 C 284.36 68.93 291.16 61.85 299.50 59.68 Z" />
<path fill="#ef1931" opacity="1.00" d=" M 231.81 59.51 C 241.21 61.50 249.15 68.01 254.12 76.09 C 259.21 67.98 267.16 61.87 276.42 59.34 C 276.61 74.42 276.29 89.51 276.58 104.59 C 261.75 104.73 246.91 104.58 232.07 104.66 C 231.43 89.64 231.96 74.56 231.81 59.51 Z" />
</g>
</svg>
